<?xml version="1.0" standalone="no"?>
<!DOCTYPE svg PUBLIC "-//W3C//DTD SVG 20010904//EN"
 "http://www.w3.org/TR/2001/REC-SVG-20010904/DTD/svg10.dtd">
<svg version="1.0" xmlns="http://www.w3.org/2000/svg"
 width="200.000000pt" height="300.000000pt" viewBox="0 0 200.000000 300.000000"
 preserveAspectRatio="xMidYMid meet">

<g transform="translate(0.000000,300.000000) scale(0.100000,-0.100000)"
fill="#000000" stroke="none">
<path d="M763 2990 c26 -16 77 -21 112 -11 27 8 26 9 -15 8 -25 -1 -61 2 -80
6 -28 6 -31 6 -17 -3z"/>
<path d="M1000 2970 c8 -5 22 -9 30 -9 10 0 8 3 -5 9 -27 12 -43 12 -25 0z"/>
<path d="M935 2954 c39 -8 79 -15 90 -17 11 -1 26 -6 33 -11 8 -5 18 -4 25 3
8 8 7 11 -3 12 -37 4 -59 7 -108 18 -29 6 -65 11 -80 10 -15 0 5 -7 43 -15z"/>
<path d="M1148 2913 c7 -3 16 -2 19 1 4 3 -2 6 -13 5 -11 0 -14 -3 -6 -6z"/>
<path d="M1216 2912 c-4 -8 27 -17 116 -36 21 -5 28 -2 33 13 3 11 14 22 23
24 9 3 1 5 -18 6 -25 0 -31 -2 -20 -9 28 -18 0 -22 -40 -6 -23 9 -39 12 -35 6
8 -13 -11 -13 -35 0 -10 6 -21 6 -24 2z"/>
<path d="M1453 2883 c9 -2 23 -2 30 0 6 3 -1 5 -18 5 -16 0 -22 -2 -12 -5z"/>
<path d="M1378 2873 c6 -2 18 -2 25 0 6 3 1 5 -13 5 -14 0 -19 -2 -12 -5z"/>
<path d="M1430 2860 c20 -13 63 -13 55 0 -3 6 -21 10 -38 10 -24 0 -28 -3 -17
-10z"/>
<path d="M1508 2849 c-8 -6 1 -9 25 -9 20 0 37 2 37 4 0 9 -50 12 -62 5z"/>
<path d="M1595 2830 c4 -6 11 -8 16 -5 14 9 11 15 -7 15 -8 0 -12 -5 -9 -10z"/>
<path d="M1640 2831 c0 -11 36 -21 70 -20 18 0 12 4 -20 15 -54 16 -50 16 -50
5z"/>
<path d="M1868 2833 c7 -3 16 -2 19 1 4 3 -2 6 -13 5 -11 0 -14 -3 -6 -6z"/>
<path d="M1910 2830 c-9 -6 -10 -10 -3 -10 6 0 15 5 18 10 8 12 4 12 -15 0z"/>
<path d="M1823 2823 c11 -3 16 -11 12 -22 -3 -11 1 -17 13 -18 50 -5 83 -11
89 -17 14 -14 31 -5 26 14 -6 22 -23 26 -40 9 -14 -14 -61 -1 -74 22 -5 11
-17 18 -27 18 -15 -1 -15 -2 1 -6z"/>
<path d="M1758 2803 c12 -2 30 -2 40 0 9 3 -1 5 -23 4 -22 0 -30 -2 -17 -4z"/>
<path d="M1985 2771 c-3 -5 -1 -12 5 -16 5 -3 10 1 10 9 0 18 -6 21 -15 7z"/>
<path d="M320 1722 c0 -15 38 -44 49 -37 17 10 13 25 -6 18 -10 -4 -14 -2 -10
4 4 6 0 14 -9 17 -21 8 -24 8 -24 -2z"/>
<path d="M288 1679 c14 -12 62 -20 62 -9 0 11 -2 12 -42 14 -16 1 -25 -1 -20
-5z"/>
<path d="M385 1680 c-4 -6 1 -7 11 -3 12 4 15 2 12 -8 -3 -10 -21 -14 -59 -13
-30 0 -46 -1 -36 -3 31 -8 18 -21 -18 -17 -40 3 -50 -6 -32 -30 12 -16 15 -15
51 9 34 23 40 25 48 11 11 -20 18 -20 46 4 19 16 21 23 12 40 -12 22 -25 26
-35 10z m20 -40 c-18 -20 -41 -28 -31 -11 4 5 0 12 -6 15 -7 3 -3 3 9 1 12 -3
24 -1 28 5 3 5 9 10 12 10 3 0 -2 -9 -12 -20z"/>
<path d="M560 1635 c0 -22 4 -25 40 -25 l40 0 0 -110 0 -110 25 0 25 0 0 110
0 110 45 0 c43 0 45 -1 35 -21 -6 -11 -12 -40 -13 -64 -2 -80 62 -135 161
-135 49 0 52 2 52 25 0 24 -3 25 -53 25 -40 0 -58 5 -70 18 -31 34 -21 42 53
42 68 0 70 1 70 25 0 24 -2 25 -74 25 l-74 0 11 30 c11 29 14 30 73 30 68 0
74 3 67 31 -5 18 -16 19 -209 19 l-204 0 0 -25z"/>
<path d="M1049 1637 c-89 -59 -87 -172 4 -228 28 -17 50 -19 191 -18 l159 1
29 28 c17 18 26 34 22 44 -11 28 5 17 21 -14 19 -37 66 -62 108 -58 28 3 32 7
35 34 3 29 1 30 -28 26 -55 -8 -70 17 -70 120 l0 88 -30 0 -30 0 0 -87 c-1
-69 -3 -84 -12 -68 -19 35 -40 45 -99 45 -59 0 -87 16 -75 45 4 12 23 15 86
15 79 0 80 0 80 25 0 25 -1 25 -85 25 -78 0 -88 -2 -110 -25 -30 -29 -33 -73
-7 -105 15 -18 32 -24 78 -28 64 -4 93 -24 73 -49 -6 -7 -17 -13 -24 -13 -8 0
-16 -6 -18 -12 -4 -10 -6 -10 -6 0 -1 9 -30 12 -110 12 -127 0 -154 8 -176 49
-14 27 -14 35 -1 65 18 43 42 56 100 56 42 0 46 2 46 25 0 24 -3 25 -59 25
-44 0 -66 -6 -92 -23z"/>
<path d="M1640 1658 c-1 -9 -1 -216 0 -233 1 -18 3 -17 25 8 23 26 25 36 25
128 0 99 0 99 -25 99 -14 0 -25 -1 -25 -2z"/>
<path d="M1702 1638 c3 -20 11 -24 53 -28 43 -4 50 -8 53 -28 4 -25 -14 -53
-32 -51 -6 1 -26 1 -44 0 -29 -1 -33 -4 -30 -23 3 -21 8 -23 62 -22 52 1 63 5
83 28 14 17 23 40 23 59 -1 58 -40 87 -120 87 -48 0 -51 -2 -48 -22z"/>
<path d="M1982 1630 c0 -14 2 -19 5 -12 2 6 2 18 0 25 -3 6 -5 1 -5 -13z"/>
<path d="M335 1600 c-9 -28 -3 -33 19 -17 16 12 16 15 3 26 -13 10 -16 8 -22
-9z"/>
<path d="M1981 1533 c-7 -12 -10 -14 -11 -4 0 8 -2 12 -5 9 -3 -3 -3 -13 1
-22 6 -15 8 -15 21 4 8 12 13 24 10 26 -3 3 -10 -3 -16 -13z"/>
<path d="M1985 1490 c-3 -11 -2 -27 3 -37 8 -13 10 -9 9 20 -1 42 -3 45 -12
17z"/>
<path d="M1937 1413 c-9 -48 -14 -89 -12 -92 3 -2 5 4 6 15 0 18 1 18 10 -1 6
-14 7 -7 3 25 -4 35 -3 42 6 30 9 -12 11 -8 6 18 -6 37 1 42 14 10 l9 -23 0
22 c1 12 -4 25 -10 29 -6 3 -9 15 -6 25 3 10 2 21 -2 23 -4 3 -15 -34 -24 -81z"/>
<path d="M1542 1305 c0 -16 2 -22 5 -12 2 9 2 23 0 30 -3 6 -5 -1 -5 -18z"/>
<path d="M1488 1313 c7 -3 16 -2 19 1 4 3 -2 6 -13 5 -11 0 -14 -3 -6 -6z"/>
<path d="M1561 1298 c0 -16 2 -18 6 -8 3 8 11 18 17 22 7 5 4 8 -6 8 -12 0
-18 -7 -17 -22z"/>
<path d="M1605 1310 c-3 -6 1 -7 9 -4 9 3 16 2 16 -4 0 -6 -5 -12 -12 -14 -7
-3 -6 -7 5 -11 13 -5 17 -1 17 18 0 25 -23 35 -35 15z"/>
<path d="M1653 1306 c1 -11 9 -21 17 -23 10 -3 11 -2 4 4 -6 4 -14 15 -17 23
-5 11 -6 9 -4 -4z"/>
<path d="M1691 1298 c0 -16 2 -18 6 -8 3 8 11 18 17 22 7 5 4 8 -6 8 -12 0
-18 -7 -17 -22z"/>
<path d="M1755 1309 c-4 -6 -5 -12 -2 -15 2 -3 7 2 10 11 7 17 1 20 -8 4z"/>
<path d="M1822 1300 c0 -14 2 -19 5 -12 2 6 2 18 0 25 -3 6 -5 1 -5 -13z"/>
<path d="M1844 1302 c2 -9 8 -18 14 -20 17 -5 15 25 -2 31 -9 4 -13 0 -12 -11z"/>
<path d="M1448 1283 c7 -3 16 -2 19 1 4 3 -2 6 -13 5 -11 0 -14 -3 -6 -6z"/>
<path d="M1907 1265 c-3 -11 -8 -36 -11 -55 -5 -30 -3 -29 9 10 8 25 14 49 12
55 -2 5 -6 1 -10 -10z"/>
<path d="M1899 1149 c-1 -13 -2 -36 -3 -52 -1 -15 2 -33 7 -40 5 -7 7 3 3 26
-2 20 -2 35 2 33 9 -6 8 41 -1 51 -4 3 -8 -5 -8 -18z"/>
<path d="M1881 1144 c0 -11 3 -14 6 -6 3 7 2 16 -1 19 -3 4 -6 -2 -5 -13z"/>
<path d="M1868 1084 c-1 -16 -1 -42 0 -57 1 -17 -2 -26 -8 -22 -6 3 -7 0 -4
-9 11 -29 26 -4 20 33 l-5 36 15 -30 c13 -26 14 -26 9 -5 -4 14 -8 36 -10 48
-5 36 -15 39 -17 6z"/>
<path d="M1850 956 c0 -8 5 -18 10 -21 6 -3 10 3 10 14 0 12 -4 21 -10 21 -5
0 -10 -6 -10 -14z"/>
<path d="M1881 934 c0 -11 3 -14 6 -6 3 7 2 16 -1 19 -3 4 -6 -2 -5 -13z"/>
<path d="M1836 919 c-9 -28 -20 -115 -18 -137 2 -15 -1 -21 -7 -17 -6 3 -11 1
-11 -4 0 -18 19 -12 30 9 8 15 8 20 -1 20 -7 0 -8 7 -4 18 11 24 25 115 20
120 -3 3 -7 -1 -9 -9z"/>
<path d="M1911 914 c0 -11 3 -14 6 -6 3 7 2 16 -1 19 -3 4 -6 -2 -5 -13z"/>
<path d="M1912 785 c0 -16 2 -22 5 -12 2 9 2 23 0 30 -3 6 -5 -1 -5 -18z"/>
<path d="M1823 695 c1 -27 3 -41 5 -31 3 15 6 16 14 5 8 -12 9 -11 5 1 -2 8 0
23 4 32 6 10 5 19 -1 23 -5 3 -10 -2 -11 -12 -1 -12 -3 -10 -9 7 -5 19 -7 12
-7 -25z"/>
<path d="M1796 683 c-4 -15 -9 -36 -12 -45 -3 -10 -1 -18 4 -18 5 0 12 19 15
42 7 50 2 62 -7 21z"/>
<path d="M1901 664 c0 -11 3 -14 6 -6 3 7 2 16 -1 19 -3 4 -6 -2 -5 -13z"/>
<path d="M1777 594 c3 -7 9 -14 14 -14 14 0 10 17 -5 23 -10 4 -13 1 -9 -9z"/>
<path d="M1760 551 c0 -11 -2 -28 -5 -38 -3 -11 -1 -9 6 5 7 12 19 22 27 22
12 0 12 3 2 15 -17 21 -30 19 -30 -4z"/>
<path d="M5 520 c-4 -6 11 -10 41 -10 54 0 55 4 2 14 -21 4 -39 2 -43 -4z"/>
<path d="M100 500 c-21 -7 -18 -8 20 -10 39 -2 42 -3 20 -11 -21 -7 -20 -8 9
-4 18 3 43 5 55 5 13 1 7 6 -19 15 -44 16 -49 17 -85 5z"/>
<path d="M233 475 c-8 -9 -9 -16 -3 -20 6 -3 10 -1 10 4 0 6 10 11 23 11 18 0
19 2 7 10 -19 12 -23 12 -37 -5z"/>
<path d="M308 463 c6 -2 18 -2 25 0 6 3 1 5 -13 5 -14 0 -19 -2 -12 -5z"/>
<path d="M18 453 c12 -2 30 -2 40 0 9 3 -1 5 -23 4 -22 0 -30 -2 -17 -4z"/>
<path d="M145 450 c27 -12 43 -12 25 0 -8 5 -22 9 -30 9 -10 0 -8 -3 5 -9z"/>
<path d="M255 450 c4 -6 11 -8 16 -5 14 9 11 15 -7 15 -8 0 -12 -5 -9 -10z"/>
<path d="M358 453 c6 -2 18 -2 25 0 6 3 1 5 -13 5 -14 0 -19 -2 -12 -5z"/>
<path d="M410 450 c8 -5 22 -9 30 -9 10 0 8 3 -5 9 -27 12 -43 12 -25 0z"/>
<path d="M516 433 c-12 -12 -6 -23 13 -23 11 0 23 -4 26 -10 3 -5 14 -10 23
-9 14 0 14 2 -3 10 -16 8 -15 9 10 5 17 -2 59 -7 95 -10 l65 -6 -75 16 c-41 8
-86 16 -100 17 -14 1 -30 6 -36 9 -6 4 -14 5 -18 1z"/>
<path d="M1750 419 c0 -8 -7 -27 -15 -43 -9 -16 -12 -32 -7 -35 5 -3 12 -13
16 -21 3 -8 4 -5 2 8 -2 12 0 39 6 58 5 20 7 38 4 42 -3 3 -6 -1 -6 -9z"/>
<path d="M735 381 c-14 -6 -5 -8 27 -7 25 1 41 4 35 8 -15 9 -36 9 -62 -1z"/>
<path d="M891 359 c7 -5 26 -9 42 -9 15 0 27 -4 27 -10 0 -5 14 -10 31 -10 18
0 28 4 24 10 -4 6 -11 8 -16 4 -5 -3 -15 -1 -22 4 -7 5 -32 12 -56 15 -29 4
-40 2 -30 -4z"/>
<path d="M880 330 c0 -6 17 -10 37 -10 43 0 41 5 -4 13 -19 4 -33 2 -33 -3z"/>
<path d="M1073 323 c9 -2 23 -2 30 0 6 3 -1 5 -18 5 -16 0 -22 -2 -12 -5z"/>
<path d="M1030 310 c8 -5 22 -9 30 -9 10 0 8 3 -5 9 -27 12 -43 12 -25 0z"/>
<path d="M1155 310 c-5 -8 45 -21 84 -20 13 0 33 -7 43 -17 16 -15 18 -15 18
0 0 11 -12 18 -37 22 -21 4 -53 11 -70 15 -18 5 -35 5 -38 0z"/>
<path d="M975 290 c-25 -11 1 -11 35 0 20 6 21 8 5 8 -11 0 -29 -3 -40 -8z"/>
<path d="M1035 280 c-3 -6 1 -7 9 -4 18 7 21 14 7 14 -6 0 -13 -4 -16 -10z"/>
<path d="M1694 259 c-16 -17 -24 -29 -19 -28 6 2 22 -5 37 -15 15 -10 32 -15
37 -12 15 10 9 45 -6 39 -10 -4 -11 -9 -2 -19 16 -20 1 -17 -25 4 -19 14 -21
20 -10 30 7 6 21 9 31 6 11 -3 14 -2 8 3 -5 4 -13 12 -16 16 -3 4 -19 -7 -35
-24z"/>
<path d="M1370 271 c17 -6 20 -9 8 -10 -10 -1 -18 -5 -18 -9 0 -4 16 -6 36 -4
42 5 33 19 -16 27 -29 4 -31 3 -10 -4z"/>
<path d="M1432 249 c-11 -17 -9 -19 10 -18 13 0 17 3 9 6 -10 4 -10 7 -1 13 7
4 8 10 3 13 -5 3 -14 -3 -21 -14z"/>
<path d="M1500 240 c14 -4 39 -8 55 -8 29 0 29 0 5 8 -14 4 -38 8 -55 8 -29 0
-29 0 -5 -8z"/>
<path d="M1632 231 c-11 -6 -10 -10 4 -15 9 -3 19 -4 22 -1 3 3 -1 5 -9 5 -11
0 -11 2 1 10 8 5 11 10 5 10 -5 0 -16 -4 -23 -9z"/>
<path d="M1528 213 c6 -2 18 -2 25 0 6 3 1 5 -13 5 -14 0 -19 -2 -12 -5z"/>
<path d="M1570 206 c0 -2 9 -6 20 -9 11 -3 18 -1 14 4 -5 9 -34 13 -34 5z"/>
<path d="M1740 170 c0 -5 5 -10 10 -10 6 0 10 5 10 10 0 6 -4 10 -10 10 -5 0
-10 -4 -10 -10z"/>
<path d="M1646 141 c15 -15 47 -17 51 -3 3 8 -6 12 -28 12 -20 0 -29 -4 -23
-9z"/>
</g>
</svg>
