<?xml version="1.0" standalone="no"?>
<!DOCTYPE svg PUBLIC "-//W3C//DTD SVG 20010904//EN"
 "http://www.w3.org/TR/2001/REC-SVG-20010904/DTD/svg10.dtd">
<svg version="1.0" xmlns="http://www.w3.org/2000/svg"
 width="1366.000000pt" height="353.000000pt" viewBox="0 0 1366.000000 353.000000"
 preserveAspectRatio="xMidYMid meet">

<g transform="translate(0.000000,353.000000) scale(0.100000,-0.100000)"
fill="#000000" stroke="none">
<path d="M3376 2828 c-13 -18 -16 -52 -16 -165 0 -130 2 -145 20 -163 20 -20
33 -20 1620 -20 l1599 0 16 30 c22 42 22 286 -1 318 l-15 22 -1604 0 -1604 0
-15 -22z"/>
<path d="M7586 2834 c-356 -64 -643 -279 -785 -587 -118 -254 -128 -560 -29
-821 116 -303 342 -513 660 -615 194 -61 185 -61 1147 -61 777 0 879 2 899 16
21 14 22 21 22 168 0 135 -2 155 -18 169 -17 16 -90 17 -838 17 -949 0 -927
-1 -1111 90 -137 68 -224 154 -289 285 -52 105 -67 174 -67 305 -1 290 188
558 458 647 79 26 86 27 420 32 l339 6 13 25 c20 39 18 289 -3 318 l-15 22
-362 -1 c-267 -1 -383 -5 -441 -15z"/>
<path d="M9014 2831 c-195 -56 -346 -196 -411 -381 -34 -100 -43 -265 -18
-360 58 -227 222 -389 442 -435 50 -11 142 -15 344 -15 289 0 357 -7 424 -41
58 -30 85 -57 111 -114 43 -90 28 -207 -35 -279 -29 -33 -109 -66 -197 -80
-61 -10 -92 -19 -101 -32 -9 -13 -13 -56 -13 -148 0 -153 4 -170 36 -185 34
-15 171 -14 274 3 151 25 246 72 344 170 69 69 113 146 148 256 32 105 33 274
1 375 -62 195 -203 334 -408 402 -79 26 -85 27 -440 33 -399 7 -428 12 -494
73 -65 62 -84 137 -60 247 13 62 53 111 112 136 39 18 83 19 622 22 517 2 581
5 597 19 16 14 18 35 18 169 0 125 -3 155 -16 168 -14 14 -83 16 -617 15 -543
0 -608 -2 -663 -18z"/>
<path d="M10451 2836 c-9 -11 -11 -183 -9 -683 4 -762 -1 -716 97 -918 111
-228 306 -383 567 -451 82 -21 123 -26 234 -26 116 -1 149 3 235 26 158 42
145 19 145 270 0 118 -3 221 -6 230 -10 26 -50 18 -113 -23 -86 -55 -166 -75
-283 -69 -113 6 -188 32 -261 92 -63 51 -127 142 -158 228 -23 63 -23 65 -29
691 -4 543 -7 629 -20 637 -8 5 -99 10 -201 10 -148 0 -189 -3 -198 -14z"/>
<path d="M11834 2836 c-19 -14 -19 -37 -22 -975 -2 -839 0 -962 12 -967 19 -7
116 67 187 143 103 112 158 213 207 378 l26 90 4 660 c3 616 2 661 -15 672
-26 19 -372 18 -399 -1z"/>
<path d="M12364 2836 c-17 -13 -19 -28 -19 -171 0 -143 2 -158 19 -171 16 -11
75 -14 311 -14 318 0 365 -6 425 -57 17 -14 43 -49 58 -77 25 -47 27 -60 27
-171 0 -111 -2 -124 -27 -170 -31 -60 -58 -89 -101 -112 -28 -16 -72 -19 -360
-23 -277 -4 -329 -7 -337 -20 -5 -8 -10 -88 -10 -177 0 -137 3 -164 17 -178
14 -15 50 -16 357 -13 l341 4 85 28 c261 87 411 229 482 456 33 110 31 282 -5
395 -78 239 -279 418 -529 469 -107 22 -704 24 -734 2z"/>
<path d="M3996 2414 c-14 -14 -16 -105 -16 -859 0 -825 0 -845 19 -855 12 -6
96 -10 205 -10 180 0 185 1 200 22 14 20 16 116 16 841 0 822 -1 847 -34 869
-6 4 -93 8 -193 8 -152 0 -184 -3 -197 -16z"/>
<path d="M5095 2404 c-13 -14 -44 -67 -69 -118 -181 -370 -144 -808 96 -1126
108 -144 271 -263 448 -328 187 -69 296 -82 702 -82 275 0 319 2 332 16 13 13
16 43 16 174 0 147 -1 160 -19 170 -13 6 -142 10 -353 10 -183 0 -362 5 -398
10 -191 30 -352 185 -391 377 -12 57 -11 64 6 83 18 20 27 20 570 20 522 0
553 1 568 18 14 16 17 43 17 173 0 107 -4 159 -12 167 -9 9 -146 12 -554 12
-324 0 -553 4 -568 10 -35 13 -42 49 -23 126 21 82 37 117 87 179 79 100 77
95 51 116 -21 17 -43 19 -253 19 l-229 0 -24 -26z"/>
</g>
</svg>
